<svg xmlns="http://www.w3.org/2000/svg"  viewBox="0 0 480 480" width="480px" height="480px"><path d="M 199 12 C 150.43 12 109.10917 43.648297 94.576172 87.404297 C 92.845172 92.613297 96.657484 98 102.14648 98 L 149.75781 98 C 152.56881 98 155.18328 96.528422 156.61328 94.107422 C 166.19128 77.892422 183.843 67 204 67 L 275 67 C 295.157 67 312.80967 77.892422 322.38867 94.107422 C 323.81867 96.528422 326.43214 98 329.24414 98 L 377.85547 98 C 383.34447 98 387.15578 92.613297 385.42578 87.404297 C 370.89178 43.648297 329.57 12 281 12 L 199 12 z M 32 114 C 14.327 114 0 128.327 0 146 L 0 232.71094 C 2.3684758e-15 251.49094 13.420156 267.4707 31.910156 270.7207 L 170.30664 295.05469 C 172.75564 295.48469 175 293.60123 175 291.11523 L 175 269.75 C 175 250.558 190.558 235 209.75 235 L 270.25 235 C 289.442 235 305 250.558 305 269.75 L 305 291.11523 C 305 293.60223 307.24436 295.48569 309.69336 295.05469 L 448.08984 270.7207 C 466.57984 267.4707 480 251.49094 480 232.71094 L 480 146 C 480 128.327 465.673 114 448 114 L 32 114 z M 209.75 251 C 199.395 251 191 259.395 191 269.75 C 191 321.759 190.71292 319.75461 191.66992 323.22461 C 192.75792 327.17461 198.34548 327.19047 199.39648 323.23047 C 204.12448 305.42747 220.406 292 240 292 C 259.264 292 275.78952 305.10447 280.60352 323.23047 C 281.65452 327.18947 287.24108 327.17461 288.33008 323.22461 C 289.26208 319.84261 289 322.057 289 269.75 C 289 259.395 280.605 251 270.25 251 L 209.75 251 z M 31.544922 287.10938 C 27.415141 287.33331 24 290.75981 24 295.10156 L 24 436 C 24 453.673 38.327 468 56 468 L 424 468 C 441.673 468 456 453.673 456 436 L 456 295.11328 C 456 290.14128 451.51909 286.37042 446.62109 287.23242 L 403.60742 294.7793 C 399.78642 295.4553 397 298.7772 397 302.6582 L 397 389 C 397 402.255 386.255 413 373 413 L 107 413 C 93.745 413 83 402.255 83 389 L 83 302.66602 C 83 298.78202 80.209766 295.46011 76.384766 294.78711 C 76.384766 294.78711 35.123562 287.5218 33.351562 287.2168 C 32.740313 287.11142 32.134891 287.07738 31.544922 287.10938 z M 106.58008 300.30664 C 102.43805 300.51958 99 303.95203 99 308.30078 L 99 389 C 99 393.418 102.582 397 107 397 L 373 397 C 377.418 397 381 393.418 381 389 L 381 308.30078 C 381 303.33078 376.50937 299.55992 371.60938 300.41992 L 308.30664 311.54688 C 306.39264 311.88188 305 313.54333 305 315.48633 L 305 318.25 C 305 334.79 293.37914 348.67016 277.86914 352.16016 L 277.85938 352.16016 C 271.07937 366.25016 256.66 376 240 376 C 223.34 376 208.92063 366.24916 202.14062 352.16016 L 202.13086 352.16016 C 186.62086 348.67016 175 334.79195 175 318.25195 L 175 315.48633 C 175 313.54233 173.60736 311.88187 171.69336 311.54688 L 108.39062 300.41992 C 107.77812 300.3123 107.1718 300.27622 106.58008 300.30664 z M 240 308 C 225.595 308 214 319.74 214 334 C 214 356.491 241.02547 368.591 257.73047 353 C 262.84147 348.238 266 341.46 266 334 C 266 319.709 254.377 308 240 308 z"/></svg>