<svg xmlns="http://www.w3.org/2000/svg"  viewBox="0 0 256 256" width="512px" height="512px"><path fill="#F9D335" d="M199.49,80.939c0,16.28-5.44,31.28-14.6,43.29c-17.599,23.079-24.69,18.593-24.69,49.24H95.8 c0-32.136-8.262-26.498-25.77-50.69C37.446,77.704,66.722,13.072,124.38,9.539C165.51,7.509,199.49,40.259,199.49,80.939z"/><path fill="#F2C300" d="M199.49,80.939c0,16.28-5.44,31.28-14.6,43.29c-17.6,23.08-24.69,18.59-24.69,49.24h-15 c0-30.65,7.09-26.16,24.69-49.24c9.16-12.01,14.6-27.01,14.6-43.29c0-36.94-28.02-67.35-63.98-71.1 C161.993,5.18,199.49,38.079,199.49,80.939z"/><path fill="#87828E" d="M160.21,173.469v40.88c0,17.75-14.391,32.2-32.21,32.2c-17.74,0-32.2-14.38-32.2-32.2v-40.88H160.21z"/><path fill="#F9E27D" d="M87.23,122.779c17.484,24.158,25.77,18.56,25.77,50.69H95.8c0-32.136-8.262-26.498-25.77-50.69 C37.446,77.704,66.722,13.072,124.38,9.539c2.94,0.14,5.83,0.45,8.67,0.94c-31.31,5.38-56.05,31.5-59.03,63.64 C72.33,92.349,77.49,109.319,87.23,122.779z"/><path fill="#A4A4A5" d="M132.5,246.239c-19.77,2.689-36.7-12.623-36.7-31.89v-40.87H113v40.86 c0,12.792,7.434,23.824,18.228,29.021C132.271,243.863,132.876,245.058,132.5,246.239z"/><path fill="#796E84" d="M160.21,173.469v40.88c0,20.952-19.661,36.146-39.71,31.32c14.17-3.38,24.71-16.13,24.71-31.32v-40.88 H160.21z"/><g><path fill="#5F266D" d="M179.499,25.742C143.104-8.225,82.17,0.998,59.676,49.061c-11.786,25.183-9.126,53.617,7.115,76.063 c5.506,7.609,10.125,12.355,13.836,16.169c7.902,8.118,11.173,11.479,11.173,32.179v40.881c0,19.96,16.239,36.199,36.199,36.199 s36.199-16.239,36.199-36.199v-40.881c0-20.466,2.822-23.423,11.2-32.203c3.391-3.555,7.612-7.978,12.674-14.615 C212.061,95.197,207.204,51.6,179.499,25.742z M156.199,214.352c0,15.549-12.65,28.199-28.199,28.199s-28.199-12.65-28.199-28.199 v-5.551h56.398V214.352z M156.199,200.801H99.801v-23.33h56.398V200.801z M124,103.798h-6.098c-3.362,0-6.097-2.735-6.097-6.097 V96.43c0-3.362,2.735-6.098,6.097-6.098c3.362,0,6.098,2.735,6.098,6.098V103.798z M181.712,121.801 c-4.794,6.286-8.845,10.532-12.101,13.943c-8.954,9.385-12.915,14.336-13.368,33.727H132v-57.673h7.517 c7.773,0,14.098-6.324,14.098-14.097V75.35c0-2.209-1.791-4-4-4s-4,1.791-4,4v22.352c0,3.361-2.735,6.097-6.098,6.097H132V96.43 c0-7.773-6.324-14.098-14.098-14.098s-14.097,6.324-14.097,14.098v1.271c0,7.772,6.324,14.097,14.097,14.097H124v57.673H99.755 c-0.474-19.631-4.641-24.766-13.395-33.759c-3.53-3.627-7.924-8.142-13.088-15.278c-14.513-20.057-16.887-45.47-6.351-67.981 C87.087,9.367,141.58,1.295,174.041,31.591C198.866,54.761,203.107,93.746,181.712,121.801z"/><path fill="#5F266D" d="M163.158,40.16c-1.672-1.445-4.197-1.262-5.642,0.408c-1.445,1.671-1.262,4.197,0.409,5.643 c3.059,2.646,5.778,5.716,8.083,9.123c1.24,1.835,3.731,2.307,5.554,1.073c1.83-1.237,2.311-3.724,1.073-5.554 C169.937,46.864,166.749,43.267,163.158,40.16z"/><path fill="#5F266D" d="M149.488,31.563c-6.815-2.962-14.049-4.464-21.5-4.464c-14.069,0-27.408,5.452-37.56,15.354 c-1.582,1.542-1.614,4.074-0.071,5.656c1.543,1.581,4.076,1.613,5.656,0.07c8.65-8.435,20.005-13.08,31.975-13.08 c6.347,0,12.507,1.279,18.311,3.802c2.025,0.879,4.382-0.048,5.263-2.074S151.515,32.443,149.488,31.563z"/><path fill="#5F266D" d="M237.235,71.35h-16c-2.209,0-4,1.791-4,4s1.791,4,4,4h16c2.209,0,4-1.791,4-4S239.444,71.35,237.235,71.35z"/><path fill="#5F266D" d="M215.093,119.214c-1.563-1.563-4.095-1.563-5.657,0c-1.562,1.562-1.562,4.095,0,5.656l11.313,11.313 c1.563,1.563,4.095,1.563,5.657,0c1.562-1.562,1.562-4.095,0-5.656L215.093,119.214z"/><path fill="#5F266D" d="M215.093,31.484l11.313-11.313c1.563-1.562,1.563-4.095,0-5.656s-4.094-1.563-5.657,0l-11.313,11.313 c-1.563,1.562-1.563,4.095,0,5.656C210.999,33.047,213.531,33.047,215.093,31.484z"/><path fill="#5F266D" d="M38.765,75.35c0-2.209-1.791-4-4-4h-16c-2.209,0-4,1.791-4,4s1.791,4,4,4h16 C36.974,79.35,38.765,77.559,38.765,75.35z"/><path fill="#5F266D" d="M40.907,119.214l-11.313,11.313c-1.563,1.562-1.563,4.095,0,5.656c1.563,1.563,4.095,1.562,5.657,0 l11.313-11.313c1.563-1.562,1.563-4.095,0-5.656C45.002,117.652,42.47,117.651,40.907,119.214z"/><path fill="#5F266D" d="M35.25,14.515c-1.563-1.563-4.095-1.563-5.657,0c-1.562,1.562-1.562,4.095,0,5.656l11.313,11.313 c1.563,1.563,4.095,1.563,5.657,0c1.562-1.562,1.562-4.095,0-5.656L35.25,14.515z"/></g></svg>