<svg xmlns="http://www.w3.org/2000/svg"  viewBox="0 0 64 64" width="512px" height="512px"><g id="_03-Cleaning" data-name="03-Cleaning"><path d="M32.7373,37.32422A1.00072,1.00072,0,0,0,32,37H5a.99944.99944,0,0,0-.99609,1.08643l1.8413,21.17334A2.98269,2.98269,0,0,0,8.8335,62h19.333a2.98269,2.98269,0,0,0,2.98829-2.74023l1.8413-21.17334A1.00089,1.00089,0,0,0,32.7373,37.32422Z" fill="#fcb860"/><path d="M32,37H5a.99944.99944,0,0,0-.99609,1.08643L4.248,40.89288A2.96333,2.96333,0,0,0,5,41H32a2.96333,2.96333,0,0,0,.752-.10712l.24408-2.80645A.99944.99944,0,0,0,32,37Z" fill="#fcaa52"/><path d="M7,29a9.01357,9.01357,0,0,1,9-9h5a9.01353,9.01353,0,0,1,9,9v4h2V29A11.00656,11.00656,0,0,0,21,18H16A11.00656,11.00656,0,0,0,5,29v4H7Z" fill="#e7eaef"/><path d="M32.7373,37.32422A1.00072,1.00072,0,0,0,32,37H28a.99944.99944,0,0,1,.99609,1.08643l-1.8413,21.17334A2.98269,2.98269,0,0,1,24.1665,62h4a2.98269,2.98269,0,0,0,2.98829-2.74023l1.8413-21.17334A1.00089,1.00089,0,0,0,32.7373,37.32422Z" fill="#fcaa52"/><rect x="2" y="31" width="33" height="8" rx="3" fill="#fcc67c"/><path d="M32,31H28a3.00328,3.00328,0,0,1,3,3v2a3.00328,3.00328,0,0,1-3,3h4a3.00328,3.00328,0,0,0,3-3V34A3.00328,3.00328,0,0,0,32,31Z" fill="#fcb860"/><path d="M27,31H10V48a3,3,0,0,0,3,3H24a3,3,0,0,0,3-3Z" fill="#e7eaef"/><path d="M23,31V48a3,3,0,0,1-3,3h4a3,3,0,0,0,3-3V31Z" fill="#d8dbe0"/><rect x="10" y="42" width="17" height="4" fill="#fc6067"/><path d="M61,51.99219a4.9347,4.9347,0,0,0-.771-2.74317,3.27574,3.27574,0,0,1,0-3.50683A4.93226,4.93226,0,0,0,61,43V42H38v1a2.97744,2.97744,0,0,1-.50879,1.75293,5.26375,5.26375,0,0,0,0,5.48535A3.28284,3.28284,0,0,1,37.49072,53.75a5.27879,5.27879,0,0,0,0,5.49219A2.9893,2.9893,0,0,1,38,61a1,1,0,0,0,1,1H60a1,1,0,0,0,1-1,4.95053,4.95053,0,0,0-.77051-2.74609,3.28825,3.28825,0,0,1,0-3.51563A4.95056,4.95056,0,0,0,61,51.99219Z" fill="#e7eaef"/><rect x="23" y="42" width="4" height="4" fill="#fb4b5b"/><path d="M43.25,62V61a2.9893,2.9893,0,0,0-.50928-1.75781,5.27879,5.27879,0,0,1,0-5.49219,3.28284,3.28284,0,0,0,.00049-3.51172,5.26375,5.26375,0,0,1,0-5.48535A2.97744,2.97744,0,0,0,43.25,43V42h2v1a4.93226,4.93226,0,0,1-.771,2.74219,3.27574,3.27574,0,0,0,0,3.50683,5.27214,5.27214,0,0,1,.00049,5.48926,3.28825,3.28825,0,0,0,0,3.51563A4.95053,4.95053,0,0,1,45.25,61v1Z" fill="#d8dbe0"/><path d="M48.5,62V61a2.9893,2.9893,0,0,0-.50928-1.75781,5.27879,5.27879,0,0,1,0-5.49219,3.28284,3.28284,0,0,0,.00049-3.51172,5.26375,5.26375,0,0,1,0-5.48535A2.97744,2.97744,0,0,0,48.5,43V42h2v1a4.93226,4.93226,0,0,1-.771,2.74219,3.27574,3.27574,0,0,0,0,3.50683,5.27214,5.27214,0,0,1,.00049,5.48926,3.28825,3.28825,0,0,0,0,3.51563A4.95053,4.95053,0,0,1,50.5,61v1Z" fill="#d8dbe0"/><path d="M53.75,62V61a2.9893,2.9893,0,0,0-.50928-1.75781,5.27879,5.27879,0,0,1,0-5.49219,3.28284,3.28284,0,0,0,.00049-3.51172,5.26375,5.26375,0,0,1,0-5.48535A2.97744,2.97744,0,0,0,53.75,43V42h2v1a4.93226,4.93226,0,0,1-.771,2.74219,3.27574,3.27574,0,0,0,0,3.50683,5.27214,5.27214,0,0,1,.00049,5.48926,3.28825,3.28825,0,0,0,0,3.51563A4.95053,4.95053,0,0,1,55.75,61v1Z" fill="#d8dbe0"/><path d="M49,2a3.00328,3.00328,0,0,0-3,3V39a1,1,0,0,0,1,1h4a1,1,0,0,0,1-1V5A3.00328,3.00328,0,0,0,49,2Z" fill="#fcb860"/><path d="M49,2a2.96457,2.96457,0,0,0-1,.18427A2.99507,2.99507,0,0,1,50,5V39a1,1,0,0,1-1,1h2a1,1,0,0,0,1-1V5A3.00328,3.00328,0,0,0,49,2Z" fill="#fcaa52"/><path d="M59,38H39a3.00328,3.00328,0,0,0-3,3v2a1,1,0,0,0,1,1H61a1,1,0,0,0,1-1V41A3.00328,3.00328,0,0,0,59,38Z" fill="#fc6067"/><path d="M59,38H55a3.00328,3.00328,0,0,1,3,3v2a1,1,0,0,1-1,1h4a1,1,0,0,0,1-1V41A3.00328,3.00328,0,0,0,59,38Z" fill="#fb4b5b"/></g></svg>