<?xml version="1.0"?><svg xmlns="http://www.w3.org/2000/svg"  viewBox="0 0 50 50" width="500px" height="500px">    <path d="M 25 1.0507812 C 24.7825 1.0507812 24.565859 1.1197656 24.380859 1.2597656 L 1.3808594 19.210938 C 0.95085938 19.550938 0.8709375 20.179141 1.2109375 20.619141 C 1.5509375 21.049141 2.1791406 21.129062 2.6191406 20.789062 L 4 19.710938 L 4 46 C 4 46.55 4.45 47 5 47 L 18 47 L 18 27 L 32 27 L 32 47 L 45 47 C 45.55 47 46 46.55 46 46 L 46 19.710938 L 47.380859 20.789062 C 47.570859 20.929063 47.78 21 48 21 C 48.3 21 48.589063 20.869141 48.789062 20.619141 C 49.129063 20.179141 49.049141 19.550937 48.619141 19.210938 L 41 13.269531 L 41 6 C 41 5.45 40.55 5 40 5 L 36 5 C 35.73 5 35.479062 5.1090625 35.289062 5.2890625 C 35.109062 5.4790625 35 5.73 35 6 L 35 8.5898438 L 25.619141 1.2597656 C 25.434141 1.1197656 25.2175 1.0507812 25 1.0507812 z M 20 29.099609 L 20 47 L 30 47 L 30 29.099609 L 20 29.099609 z M 27 36 C 27.55 36 28 36.45 28 37 C 28 37.55 27.55 38 27 38 C 26.45 38 26 37.55 26 37 C 26 36.45 26.45 36 27 36 z"/></svg>