<?xml version="1.0" encoding="UTF-8"?>
<svg id="Layer_1" data-name="Layer 1" xmlns="http://www.w3.org/2000/svg" viewBox="0 0 1080 512">
  <defs>
    <style>
      .cls-1 {
        letter-spacing: .17em;
      }

      .cls-2, .cls-3 {
        fill: #004a6a;
      }

      .cls-4 {
        fill: #00babd;
      }

      .cls-5 {
        fill: #3762cc;
      }

      .cls-6 {
        letter-spacing: .17em;
      }

      .cls-7 {
        letter-spacing: .17em;
      }

      .cls-8 {
        letter-spacing: .16em;
      }

      .cls-9 {
        letter-spacing: .16em;
      }

      .cls-10 {
        letter-spacing: .12em;
      }

      .cls-11 {
        letter-spacing: .18em;
      }

      .cls-3 {
        font-family: Rubik-Regular, Rubik;
        font-size: 26.78px;
        isolation: isolate;
      }

      .cls-12 {
        letter-spacing: .19em;
      }

      .cls-13 {
        letter-spacing: .19em;
      }
    </style>
  </defs>
  <g>
    <path class="cls-2" d="m543.14,141.89v32.2h33.98v-32.2h18.48v83.92h-18.48v-36.22h-33.98v36.22h-18.48v-83.92h18.48Z"/>
    <path class="cls-2" d="m677.92,141.89l31.36,83.92h-19.14l-6.35-18.76h-31.36l-6.63,18.76h-18.58l31.74-83.92h18.95Zm1.12,51.43l-10.55-30.8h-.28l-11.01,30.8h21.84Z"/>
    <path class="cls-2" d="m761.63,141.89l19.6,57.78h.28l18.58-57.78h25.95v83.92h-17.27v-59.46h-.28l-20.54,59.46h-14.19l-20.54-58.9h-.28v58.9h-17.27v-83.92h25.95Z"/>
    <path class="cls-2" d="m901.77,141.89c3.73,0,7.19.65,10.17,1.87,3.08,1.21,5.6,2.89,7.75,4.95s3.83,4.57,4.95,7.28c1.12,2.8,1.77,5.79,1.77,8.96,0,4.95-1.03,9.24-3.17,12.79-2.05,3.55-5.51,6.35-10.17,8.21v.28c2.24.65,4.2,1.59,5.69,2.89,1.49,1.31,2.71,2.8,3.64,4.57s1.68,3.73,2.05,5.88c.47,2.05.65,4.29.84,6.35.09,1.31.19,2.89.28,4.67.09,1.87.19,3.64.47,5.51.19,1.96.56,3.64.93,5.32.47,1.68,1.03,3.17,1.96,4.29h-18.48c-1.03-2.71-1.68-5.88-1.96-9.52-.28-3.64-.65-7.19-1.03-10.55-.65-4.39-1.96-7.56-4.01-9.71-1.96-1.96-5.41-3.08-9.99-3.08h-18.48v32.86h-18.39v-83.92l45.18.09h0Zm-6.53,37.99c4.29,0,7.37-.93,9.52-2.8,2.05-1.96,3.17-4.95,3.17-9.15s-1.03-7.09-3.17-8.87c-2.05-1.87-5.32-2.8-9.52-2.8h-20.16v23.62h20.16Z"/>
    <path class="cls-2" d="m954.2,166.72c1.96-5.41,4.57-9.99,8.12-14,3.45-4.01,7.84-7.19,12.98-9.43,5.13-2.24,10.92-3.36,17.36-3.36s12.32,1.12,17.46,3.36c5.04,2.24,9.43,5.41,12.88,9.43s6.25,8.68,8.12,14c1.96,5.41,2.8,11.11,2.8,17.46s-.93,11.86-2.8,17.08c-1.96,5.32-4.57,9.89-8.12,13.82-3.45,3.92-7.84,7-12.88,9.24-5.04,2.24-10.92,3.27-17.46,3.27s-12.23-1.12-17.36-3.27c-5.13-2.24-9.52-5.32-12.98-9.24-3.45-3.92-6.25-8.49-8.12-13.82-1.96-5.32-2.8-11.01-2.8-17.08s1.03-12.04,2.8-17.46Zm16.9,27.72c.75,3.27,2.15,6.35,3.92,8.96,1.87,2.71,4.2,4.76,7.09,6.44,2.89,1.59,6.44,2.43,10.55,2.43s7.65-.75,10.55-2.43c2.89-1.59,5.23-3.73,7.09-6.44s3.17-5.69,3.92-8.96,1.21-6.81,1.21-10.27c0-3.64-.47-7.19-1.21-10.73s-2.15-6.53-3.92-9.24c-1.87-2.71-4.2-4.85-7.09-6.44s-6.44-2.43-10.55-2.43-7.65.75-10.55,2.43c-2.89,1.59-5.23,3.73-7.09,6.44-1.87,2.71-3.17,5.79-3.92,9.24s-1.21,7.09-1.21,10.73.37,7,1.21,10.27Z"/>
  </g>
  <g>
    <path class="cls-4" d="m552.74,348.93c1.65,2.99,3.6,5.56,6.38,7.41,2.57,1.85,5.66,3.29,9.16,4.22s7.21,1.34,10.91,1.34c2.57,0,5.25-.31,8.24-.72,2.99-.41,5.66-1.24,8.24-2.47,2.57-1.24,4.74-2.88,6.38-5.04,1.75-2.16,2.57-4.84,2.57-8.13,0-3.5-1.13-6.38-3.4-8.54s-5.15-4.01-8.75-5.46-7.82-2.68-12.46-3.81-9.37-2.26-14.1-3.6c-4.84-1.24-9.57-2.68-14.21-4.43s-8.75-4.01-12.46-6.9c-3.71-2.88-6.59-6.38-8.75-10.6-2.26-4.22-3.4-9.37-3.4-15.34,0-6.59,1.44-12.46,4.32-17.5,2.88-4.84,6.59-9.06,11.22-12.35s9.88-5.66,15.65-7.31c5.87-1.65,11.63-2.47,17.6-2.47,6.79,0,13.38.82,19.66,2.26,6.18,1.44,11.94,3.91,16.68,7.41,4.84,3.4,8.75,7.72,11.63,13.07,2.88,5.25,4.32,11.74,4.32,19.25h-27.69c-.31-3.91-1.13-7.21-2.47-9.78-1.34-2.57-3.29-4.63-5.56-6.07s-5.04-2.47-8.03-3.09c-2.99-.51-6.18-.93-9.78-.93-2.26,0-4.63.31-6.9.72-2.26.51-4.43,1.34-6.38,2.57-1.85,1.24-3.4,2.68-4.63,4.63-1.24,1.75-1.75,4.22-1.75,6.9s.51,4.63,1.44,6.18c.93,1.65,2.88,2.99,5.87,4.32,2.88,1.34,6.79,2.68,11.94,4.01,5.04,1.34,11.63,2.99,19.77,5.15,2.47.51,5.87,1.34,10.19,2.68,4.32,1.24,8.65,3.4,12.87,6.07,4.22,2.88,8.03,6.49,11.12,11.22s4.63,10.71,4.63,18.02c0,5.97-1.24,11.53-3.5,16.68s-5.87,9.47-10.29,13.28c-4.63,3.6-10.29,6.59-17.09,8.65s-14.62,3.09-23.37,3.09c-7.21,0-14.21-.93-21-2.68s-12.77-4.63-17.81-8.24c-5.15-3.81-9.37-8.54-12.35-14.52-2.99-5.87-4.43-12.77-4.32-20.8h27.69c-.51,4.84.31,8.44,1.96,11.63Z"/>
    <path class="cls-4" d="m748.65,250.62v24.09h-68.87v28h63.21v22.34h-63.21v31.91h70.31v24.09h-99.04v-130.43h97.59Z"/>
    <path class="cls-4" d="m867.04,381.05l-22.03-88.74h-.41l-21.82,88.74h-29.13l-34.49-130.43h28.72l20.69,88.74h.41l22.55-88.74h26.77l22.34,89.87h.41l21.41-89.87h28.1l-35,130.43h-28.52Z"/>
    <path class="cls-4" d="m1006.12,250.62l48.69,130.43h-29.75l-9.88-29.13h-48.69l-10.29,29.13h-28.83l49.21-130.43h29.55Zm1.54,79.99l-16.37-47.87h-.41l-17.09,47.87h33.87Z"/>
  </g>
  <text class="cls-3" transform="translate(523.08 419.52)"><tspan class="cls-13" x="0" y="0">SE</tspan><tspan class="cls-6" x="43.17" y="0">R</tspan><tspan class="cls-12" x="65.29" y="0">VICES</tspan><tspan class="cls-7" x="166.56" y="0"> </tspan><tspan class="cls-10" x="177.57" y="0">A</tspan><tspan class="cls-1" x="198.67" y="0">T</tspan><tspan class="cls-8" x="218.64" y="0"> </tspan><tspan class="cls-9" x="229.57" y="0">Y</tspan><tspan class="cls-13" x="251.23" y="0">OUR FINGE</tspan><tspan class="cls-11" x="434.53" y="0">R</tspan><tspan class="cls-12" x="457" y="0">TIPS</tspan></text>
  <g>
    <path class="cls-4" d="m350.5,295.87h-21.22c-1.6-4.99-3.65-9.89-6.06-14.53l14.98-14.98c2.05-2.05,3.12-4.72,3.12-7.58s-1.07-5.53-3.12-7.58l-21.75-21.75c-2.05-2.05-4.72-3.12-7.58-3.12s-5.53,1.07-7.58,3.12l-14.98,14.98c-4.64-2.5-9.54-4.46-14.53-6.06v-21.13c0-5.97-4.81-10.7-10.7-10.7h-30.75c-5.97,0-10.7,4.81-10.7,10.7v21.22c-4.99,1.6-9.89,3.65-14.53,6.06l-14.98-14.98c-2.05-2.05-4.72-3.12-7.58-3.12s-5.53,1.07-7.58,3.12l-21.75,21.75c-2.05,2.05-3.12,4.72-3.12,7.58s1.07,5.53,3.12,7.58l14.98,14.98c-2.5,4.64-4.46,9.54-6.06,14.53h-21.22c-5.97,0-10.7,4.81-10.7,10.7v30.75c0,5.97,4.81,10.7,10.7,10.7h21.22c1.6,4.99,3.65,9.89,6.06,14.53l-14.98,14.98c-2.05,2.05-3.12,4.72-3.12,7.58s1.07,5.53,3.12,7.58l21.75,21.75c2.05,2.05,4.72,3.12,7.58,3.12s5.53-1.07,7.58-3.12l14.98-14.98c4.64,2.5,9.54,4.46,14.53,6.06v21.22c0,5.97,4.81,10.7,10.7,10.7h30.75c5.97,0,10.7-4.81,10.7-10.7v-21.22c4.99-1.6,9.89-3.65,14.53-6.06l14.98,14.98c2.05,2.05,4.72,3.12,7.58,3.12s5.53-1.07,7.58-3.12l21.75-21.75c2.05-2.05,3.12-4.72,3.12-7.58s-1.07-5.53-3.12-7.58l-14.98-14.98c2.5-4.64,4.46-9.54,6.06-14.53h21.22c5.97,0,10.7-4.81,10.7-10.7v-30.84c0-5.88-4.81-10.7-10.7-10.7Zm-104.74,85.04c-32.54,0-59.01-26.48-59.01-59.01s26.48-59.01,59.01-59.01,59.01,26.48,59.01,59.01-26.48,59.01-59.01,59.01Z"/>
    <path class="cls-5" d="m261.09,440.19h-30.75c-7.4,0-13.46-6.06-13.46-13.46v-19.17c-3.83-1.34-7.58-2.85-11.14-4.64l-13.64,13.55c-2.5,2.5-5.97,3.92-9.54,3.92s-7.04-1.43-9.54-3.92l-21.75-21.75c-2.5-2.5-3.92-5.97-3.92-9.54s1.43-7.04,3.92-9.54l13.55-13.55c-1.78-3.65-3.3-7.4-4.64-11.14h-19.17c-7.4,0-13.46-6.06-13.46-13.46v-30.84c0-7.4,6.06-13.46,13.46-13.46h19.17c1.34-3.83,2.85-7.58,4.64-11.14l-13.55-13.55c-2.5-2.5-3.92-5.97-3.92-9.54s1.43-7.04,3.92-9.54l21.75-21.75c2.5-2.5,5.97-3.92,9.54-3.92s7.04,1.43,9.54,3.92l13.55,13.55c3.65-1.78,7.4-3.3,11.14-4.64v-19.17c0-7.4,6.06-13.46,13.46-13.46h30.75c7.4,0,13.46,6.06,13.46,13.46v19.17c3.83,1.34,7.58,2.85,11.14,4.64l13.55-13.55c2.5-2.5,5.97-3.92,9.54-3.92s7.04,1.43,9.54,3.92l21.75,21.75c2.5,2.5,3.92,5.97,3.92,9.54s-1.43,7.04-3.92,9.54l-13.37,13.37c1.78,3.65,3.3,7.4,4.64,11.14h19.17c7.4,0,13.46,6.06,13.46,13.46v30.75c0,7.4-6.06,13.46-13.46,13.46h-19.08c-1.34,3.83-2.85,7.58-4.64,11.14l13.55,13.55c2.5,2.5,3.92,5.97,3.92,9.54s-1.43,7.04-3.92,9.54l-21.75,21.75c-2.5,2.5-5.97,3.92-9.54,3.92s-7.04-1.43-9.54-3.92l-13.55-13.55c-3.65,1.78-7.4,3.3-11.14,4.64v19.17c-.18,7.67-6.24,13.73-13.64,13.73Zm-55.98-43.59c.45,0,.89.18,1.34.36,4.46,2.41,9.18,4.37,14.08,5.88,1.16.36,1.96,1.43,1.96,2.67v21.22c0,4.37,3.57,7.93,7.93,7.93h30.75c4.37,0,7.93-3.57,7.93-7.93v-21.22c0-1.25.8-2.32,1.96-2.67,4.81-1.52,9.54-3.48,14.08-5.88,1.07-.53,2.5-.36,3.3.45l14.98,14.98c1.52,1.52,3.48,2.32,5.62,2.32s4.1-.8,5.62-2.32l21.75-21.75c1.52-1.52,2.32-3.48,2.32-5.62s-.8-4.1-2.32-5.62l-15.15-14.89c-.89-.89-1.07-2.14-.45-3.3,2.41-4.46,4.28-9.18,5.88-14.08.36-1.16,1.43-1.96,2.67-1.96h21.22c4.37,0,7.93-3.57,7.93-7.93v-30.75c0-4.37-3.57-7.93-7.93-7.93h-21.31c-1.25,0-2.32-.8-2.67-1.96-1.52-4.81-3.48-9.63-5.88-14.08-.53-1.07-.36-2.5.45-3.3l14.98-14.98c1.52-1.52,2.32-3.48,2.32-5.62s-.8-4.1-2.32-5.62l-21.75-21.75c-1.52-1.52-3.48-2.32-5.62-2.32s-4.1.8-5.62,2.32l-14.89,15.15c-.89.89-2.14,1.07-3.3.45-4.46-2.41-9.18-4.37-14.08-5.88-1.16-.36-1.96-1.43-1.96-2.67v-21.13c0-4.37-3.57-7.93-7.93-7.93h-30.67c-4.37,0-7.93,3.57-7.93,7.93v21.22c0,1.25-.8,2.32-1.96,2.67-4.81,1.52-9.63,3.48-14.08,5.88-1.07.53-2.5.36-3.3-.45l-14.98-14.98c-1.52-1.52-3.48-2.32-5.62-2.32s-4.1.8-5.62,2.32l-21.75,21.75c-1.52,1.52-2.32,3.48-2.32,5.62s.8,4.1,2.32,5.62l14.98,14.98c.89.89,1.07,2.14.45,3.3-2.41,4.46-4.37,9.18-5.88,14.08-.36,1.16-1.43,1.96-2.67,1.96h-21.22c-4.37,0-7.93,3.57-7.93,7.93v30.75c0,4.37,3.57,7.93,7.93,7.93h21.22c1.25,0,2.32.8,2.67,1.96,1.52,4.81,3.48,9.63,5.88,14.08.53,1.07.36,2.5-.45,3.3l-14.98,14.98c-1.52,1.52-2.32,3.48-2.32,5.62s.8,4.1,2.32,5.62l21.75,21.75c1.52,1.52,3.48,2.32,5.62,2.32s4.1-.8,5.62-2.32l14.98-14.98c.62-.89,1.25-1.16,2.05-1.16Z"/>
    <path class="cls-2" d="m261.09,440.19h-30.75c-7.4,0-13.46-6.06-13.46-13.46v-19.17c-3.83-1.34-7.58-2.85-11.14-4.64l-13.64,13.55c-2.5,2.5-5.97,3.92-9.54,3.92s-7.04-1.43-9.54-3.92l-21.75-21.75c-2.5-2.5-3.92-5.97-3.92-9.54s1.43-7.04,3.92-9.54l13.55-13.55c-1.78-3.65-3.3-7.4-4.64-11.14h-19.17c-7.4,0-13.46-6.06-13.46-13.46v-30.84c0-7.4,6.06-13.46,13.46-13.46h19.17c1.34-3.83,2.85-7.58,4.64-11.14l-13.55-13.55c-2.5-2.5-3.92-5.97-3.92-9.54s1.43-7.04,3.92-9.54l21.75-21.75c2.5-2.5,5.97-3.92,9.54-3.92s7.04,1.43,9.54,3.92l13.55,13.55c3.65-1.78,7.4-3.3,11.14-4.64v-19.17c0-7.4,6.06-13.46,13.46-13.46h30.75c7.4,0,13.46,6.06,13.46,13.46v19.17c3.83,1.34,7.58,2.85,11.14,4.64l13.55-13.55c2.5-2.5,5.97-3.92,9.54-3.92s7.04,1.43,9.54,3.92l21.75,21.75c2.5,2.5,3.92,5.97,3.92,9.54s-1.43,7.04-3.92,9.54l-13.37,13.37c1.78,3.65,3.3,7.4,4.64,11.14h19.17c7.4,0,13.46,6.06,13.46,13.46v30.75c0,7.4-6.06,13.46-13.46,13.46h-19.08c-1.34,3.83-2.85,7.58-4.64,11.14l13.55,13.55c2.5,2.5,3.92,5.97,3.92,9.54s-1.43,7.04-3.92,9.54l-21.75,21.75c-2.5,2.5-5.97,3.92-9.54,3.92s-7.04-1.43-9.54-3.92l-13.55-13.55c-3.65,1.78-7.4,3.3-11.14,4.64v19.17c-.18,7.67-6.24,13.73-13.64,13.73Zm-55.98-43.59c.45,0,.89.18,1.34.36,4.46,2.41,9.18,4.37,14.08,5.88,1.16.36,1.96,1.43,1.96,2.67v21.22c0,4.37,3.57,7.93,7.93,7.93h30.75c4.37,0,7.93-3.57,7.93-7.93v-21.22c0-1.25.8-2.32,1.96-2.67,4.81-1.52,9.54-3.48,14.08-5.88,1.07-.53,2.5-.36,3.3.45l14.98,14.98c1.52,1.52,3.48,2.32,5.62,2.32s4.1-.8,5.62-2.32l21.75-21.75c1.52-1.52,2.32-3.48,2.32-5.62s-.8-4.1-2.32-5.62l-15.15-14.89c-.89-.89-1.07-2.14-.45-3.3,2.41-4.46,4.28-9.18,5.88-14.08.36-1.16,1.43-1.96,2.67-1.96h21.22c4.37,0,7.93-3.57,7.93-7.93v-30.75c0-4.37-3.57-7.93-7.93-7.93h-21.31c-1.25,0-2.32-.8-2.67-1.96-1.52-4.81-3.48-9.63-5.88-14.08-.53-1.07-.36-2.5.45-3.3l14.98-14.98c1.52-1.52,2.32-3.48,2.32-5.62s-.8-4.1-2.32-5.62l-21.75-21.75c-1.52-1.52-3.48-2.32-5.62-2.32s-4.1.8-5.62,2.32l-14.89,15.15c-.89.89-2.14,1.07-3.3.45-4.46-2.41-9.18-4.37-14.08-5.88-1.16-.36-1.96-1.43-1.96-2.67v-21.13c0-4.37-3.57-7.93-7.93-7.93h-30.67c-4.37,0-7.93,3.57-7.93,7.93v21.22c0,1.25-.8,2.32-1.96,2.67-4.81,1.52-9.63,3.48-14.08,5.88-1.07.53-2.5.36-3.3-.45l-14.98-14.98c-1.52-1.52-3.48-2.32-5.62-2.32s-4.1.8-5.62,2.32l-21.75,21.75c-1.52,1.52-2.32,3.48-2.32,5.62s.8,4.1,2.32,5.62l14.98,14.98c.89.89,1.07,2.14.45,3.3-2.41,4.46-4.37,9.18-5.88,14.08-.36,1.16-1.43,1.96-2.67,1.96h-21.22c-4.37,0-7.93,3.57-7.93,7.93v30.75c0,4.37,3.57,7.93,7.93,7.93h21.22c1.25,0,2.32.8,2.67,1.96,1.52,4.81,3.48,9.63,5.88,14.08.53,1.07.36,2.5-.45,3.3l-14.98,14.98c-1.52,1.52-2.32,3.48-2.32,5.62s.8,4.1,2.32,5.62l21.75,21.75c1.52,1.52,3.48,2.32,5.62,2.32s4.1-.8,5.62-2.32l14.98-14.98c.62-.89,1.25-1.16,2.05-1.16Z"/>
    <path class="cls-4" d="m245.75,384.03c-34.23,0-62.04-27.81-62.04-62.04s27.81-62.04,62.04-62.04,62.04,27.81,62.04,62.04-27.81,62.04-62.04,62.04Zm0-119.01c-31.38,0-56.87,25.5-56.87,56.87s25.5,56.87,56.87,56.87,56.87-25.5,56.87-56.87c0-31.29-25.5-56.87-56.87-56.87Zm0,98.5c-22.91,0-41.63-18.72-41.63-41.63s18.72-41.63,41.63-41.63,41.63,18.72,41.63,41.63c-.09,23-18.72,41.63-41.63,41.63Zm0-78.09c-20.15,0-36.46,16.4-36.46,36.46s16.4,36.46,36.46,36.46,36.46-16.4,36.46-36.46c-.09-20.06-16.4-36.46-36.46-36.46Z"/>
  </g>
  <path class="cls-4" d="m341.28,359.07c-11.59-10.43-27.9-13.1-41.9-8.02l-82.81-82.81c5.35-14.62,2.14-31.82-9.63-43.59-12.75-12.75-31.74-15.42-47.16-8.11-1.16.53-1.43,2.05-.45,3.03l23.62,23.62c2.94,2.94,2.94,7.67,0,10.52l-5.62,5.62c-2.94,2.94-7.67,2.94-10.52,0l-23.62-23.62c-.89-.89-2.5-.71-3.03.45-7.67,16.05-4.46,36.01,9.72,48.67,11.59,10.43,27.9,13.1,41.9,8.02l82.81,82.81c-5.35,14.62-2.14,31.82,9.63,43.59,12.75,12.75,31.74,15.42,47.16,8.11,1.16-.53,1.43-2.05.45-3.03l-23.62-23.62c-2.94-2.94-2.94-7.67,0-10.52l5.62-5.62c2.94-2.94,7.67-2.94,10.52,0l23.62,23.62c.89.89,2.5.71,3.03-.45,7.67-16.05,4.46-36.01-9.72-48.67Z"/>
  <path class="cls-2" d="m313.73,434.13c-11.5,0-22.82-4.46-31.29-12.93-11.77-11.77-15.87-29.15-10.88-44.84l-80.23-80.23c-14.98,4.81-31.29,1.34-43.06-9.18-14.8-13.19-18.99-34.14-10.43-52.06.62-1.34,1.87-2.32,3.39-2.59,1.52-.27,3.03.18,4.1,1.34l23.62,23.62c1.78,1.78,4.72,1.78,6.51,0l5.62-5.62c1.78-1.78,1.78-4.72,0-6.51l-23.62-23.62c-1.07-1.07-1.6-2.59-1.34-4.1.27-1.52,1.25-2.76,2.59-3.39,16.94-8.02,37.08-4.55,50.37,8.65,11.77,11.77,15.87,29.15,10.88,44.84l80.23,80.23c14.98-4.81,31.29-1.34,43.06,9.18h0c14.71,13.19,18.99,34.14,10.43,52.06-.62,1.34-1.87,2.32-3.39,2.59-1.52.27-3.03-.18-4.1-1.34l-23.62-23.62c-1.78-1.78-4.72-1.78-6.51,0l-5.62,5.62c-.89.89-1.34,2.05-1.34,3.3s.45,2.41,1.34,3.3l23.62,23.62c1.07,1.07,1.6,2.59,1.34,4.1s-1.25,2.76-2.59,3.39c-6.15,2.76-12.75,4.19-19.08,4.19Zm-121.77-144.06c.71,0,1.43.27,1.96.8l82.81,82.81c.71.71.98,1.87.71,2.94-5.17,14.08-1.6,30.04,8.91,40.65,11.14,11.14,28.26,14.35,42.7,8.11l-22.73-22.73c-1.87-1.87-3.03-4.46-3.03-7.22s1.07-5.35,3.03-7.22l5.62-5.62c4.01-4.01,10.52-4.01,14.44,0l22.73,22.73c6.69-15.24,2.85-32.89-9.72-44.13h0c-10.61-9.45-25.58-12.3-39.04-7.4-.98.36-2.14.18-2.94-.71l-82.81-82.81c-.71-.71-.98-1.87-.71-2.94,5.17-14.08,1.6-30.04-8.91-40.65-11.14-11.14-28.26-14.35-42.7-8.11l22.73,22.73c4.01,4.01,4.01,10.52,0,14.44l-5.62,5.62c-4.01,4.01-10.52,4.01-14.44,0l-22.73-22.73c-6.69,15.24-2.85,32.89,9.72,44.13,10.61,9.45,25.58,12.3,39.04,7.4.36-.09.71-.09.98-.09Z"/>
  <path class="cls-2" d="m403.98,199.44v-91.67h-64.75v39.45l-93.52-75.42L22.69,251.66l3.54,4.71c9.83,13.11,28.62,15.37,41.29,4.97L245.71,114.97l178.19,146.37c12.67,10.4,31.45,8.14,41.29-4.97l3.54-4.71-64.75-52.22Z"/>
</svg>