<?xml version="1.0" encoding="UTF-8"?>
<svg id="Layer_2" data-name="Layer 2" xmlns="http://www.w3.org/2000/svg" viewBox="0 0 1332.7 605.55">
  <defs>
    <style>
      .cls-1 {
        font-family: Rubik-Regular, Rubik;
        font-size: 34px;
        isolation: isolate;
      }

      .cls-1, .cls-2 {
        fill: #004a6a;
      }

      .cls-3 {
        letter-spacing: .17em;
      }

      .cls-4 {
        fill: #00babd;
      }

      .cls-5 {
        fill: #3762cc;
      }

      .cls-6 {
        letter-spacing: .17em;
      }

      .cls-7 {
        letter-spacing: .18em;
      }

      .cls-8 {
        letter-spacing: .2em;
      }

      .cls-9 {
        letter-spacing: .2em;
      }

      .cls-10 {
        letter-spacing: .13em;
      }

      .cls-11 {
        letter-spacing: .18em;
      }

      .cls-12 {
        letter-spacing: .17em;
      }

      .cls-13 {
        letter-spacing: .19em;
      }
    </style>
  </defs>
  <g id="Layer_1-2" data-name="Layer 1">
    <g>
      <polygon class="cls-4" points="10.8 232.6 10.8 286.58 309.21 72.6 605.6 286.58 618.02 264.63 611.95 225.17 312.95 11.01 10.8 232.6"/>
      <g>
        <path class="cls-2" d="m693.92,227.98v45.13h47.56v-45.13h25.86v117.57h-25.86v-50.74h-47.56v50.74h-25.86v-117.57h25.86Z"/>
        <path class="cls-2" d="m850.27,227.98l43.91,117.57h-26.83l-8.9-26.22h-43.91l-9.27,26.22h-25.98l44.39-117.57h26.59Zm1.59,72.08l-14.76-43.17h-.37l-15.37,43.17h30.49Z"/>
        <path class="cls-2" d="m942.47,227.98l27.44,80.86h.37l25.98-80.86h36.34v117.57h-24.15v-83.3h-.37l-28.78,83.3h-19.88l-28.78-82.45h-.37v82.45h-24.15v-117.57h36.34Z"/>
        <path class="cls-2" d="m1120.41,227.98c5.24,0,10,.85,14.27,2.56,4.27,1.71,7.81,4.02,10.85,6.95,3.05,2.93,5.37,6.34,6.95,10.24,1.59,3.9,2.44,8.05,2.44,12.56,0,6.95-1.46,12.93-4.39,17.93-2.93,5-7.68,8.9-14.27,11.46v.37c3.17.85,5.85,2.2,7.93,4.02,2.07,1.83,3.78,3.9,5.12,6.46,1.34,2.44,2.32,5.24,2.93,8.17s.98,5.98,1.22,8.9c.12,1.83.24,4.02.37,6.59.12,2.56.24,5.12.61,7.68.24,2.68.73,5.12,1.34,7.44.61,2.32,1.46,4.39,2.68,5.98h-25.86c-1.46-3.78-2.32-8.17-2.68-13.29-.37-5.12-.85-10.12-1.46-14.76-.85-6.1-2.68-10.61-5.61-13.54-2.81-2.81-7.56-4.27-14.03-4.27h-25.86v45.98h-25.86v-117.57h63.3v.12Zm-9.15,53.17c5.98,0,10.37-1.34,13.29-3.9,2.93-2.68,4.39-6.95,4.39-12.81s-1.46-9.88-4.39-12.44c-2.93-2.56-7.44-3.9-13.29-3.9h-28.29v33.05h28.29Z"/>
        <path class="cls-2" d="m1176.39,262.74c2.68-7.56,6.46-14.03,11.34-19.64,4.88-5.61,10.98-10,18.17-13.17,7.2-3.17,15.25-4.76,24.27-4.76s17.2,1.59,24.39,4.76c7.07,3.17,13.17,7.56,18.05,13.17,4.88,5.61,8.78,12.2,11.34,19.64,2.68,7.56,3.9,15.61,3.9,24.39s-1.34,16.59-3.9,23.9c-2.68,7.44-6.46,13.9-11.34,19.39s-10.98,9.76-18.05,12.93-15.25,4.63-24.39,4.63-17.07-1.59-24.27-4.63c-7.2-3.17-13.29-7.44-18.17-12.93s-8.78-11.95-11.34-19.39c-2.68-7.44-3.9-15.37-3.9-23.9,0-8.66,1.34-16.83,3.9-24.39Zm23.66,38.91c1.1,4.63,3.05,8.9,5.49,12.56,2.56,3.78,5.85,6.71,9.88,9.03,4.02,2.2,9.03,3.41,14.76,3.41s10.73-1.1,14.76-3.41c4.02-2.2,7.32-5.24,9.88-9.03,2.56-3.78,4.39-7.93,5.49-12.56s1.71-9.51,1.71-14.39c0-5.12-.61-10.12-1.71-15-1.1-4.88-3.05-9.15-5.49-12.93-2.56-3.78-5.85-6.83-9.88-9.03-4.02-2.2-9.03-3.41-14.76-3.41s-10.73,1.1-14.76,3.41c-4.02,2.2-7.32,5.24-9.88,9.03-2.56,3.78-4.39,8.05-5.49,12.93s-1.71,9.88-1.71,15,.49,9.76,1.71,14.39Z"/>
      </g>
      <g>
        <path class="cls-4" d="m684.69,486.35c2.06,3.78,4.64,7.04,8.07,9.45,3.26,2.41,7.21,4.12,11.68,5.33,4.47,1.2,9.1,1.72,13.91,1.72,3.26,0,6.7-.34,10.48-.86s7.21-1.55,10.48-3.09c3.26-1.55,6.01-3.61,8.07-6.36,2.23-2.75,3.26-6.18,3.26-10.31,0-4.47-1.37-8.07-4.29-10.82s-6.53-5.15-11.17-6.87c-4.64-1.89-9.96-3.44-15.8-4.81-5.84-1.37-11.85-2.92-17.87-4.64-6.18-1.55-12.2-3.44-18.04-5.67s-11.17-5.15-15.8-8.76-8.42-8.07-11.17-13.4c-2.92-5.33-4.29-11.85-4.29-19.41,0-8.42,1.89-15.8,5.5-22.16,3.61-6.18,8.42-11.51,14.26-15.63,5.84-4.12,12.54-7.21,19.93-9.28,7.39-2.06,14.77-3.09,22.33-3.09,8.59,0,17.01,1.03,24.91,2.92,7.9,1.89,15.12,4.98,21.13,9.45,6.18,4.29,11.17,9.79,14.77,16.66,3.61,6.7,5.5,14.95,5.5,24.39h-35.22c-.34-4.98-1.37-9.1-3.09-12.37s-4.12-5.84-7.04-7.73-6.36-3.09-10.14-3.95c-3.78-.69-7.9-1.2-12.37-1.2-2.92,0-5.84.34-8.76.86-2.92.69-5.67,1.72-8.07,3.26-2.41,1.55-4.29,3.44-5.84,5.84-1.55,2.23-2.23,5.33-2.23,8.76s.69,5.84,1.89,7.9c1.2,2.06,3.61,3.78,7.39,5.5,3.61,1.72,8.59,3.44,15.12,5.15,6.36,1.72,14.77,3.78,25.08,6.53,3.09.69,7.39,1.72,12.88,3.44,5.5,1.55,10.99,4.29,16.32,7.73,5.33,3.61,10.14,8.25,14.09,14.26,3.95,6.01,5.84,13.57,5.84,22.85,0,7.56-1.55,14.6-4.47,21.13-2.92,6.53-7.39,12.02-13.06,16.83-5.84,4.64-13.06,8.42-21.64,10.99-8.59,2.58-18.55,3.95-29.72,3.95-9.1,0-18.04-1.2-26.63-3.44s-16.15-5.84-22.68-10.48c-6.53-4.81-11.85-10.82-15.63-18.38-3.78-7.39-5.67-16.15-5.5-26.45h35.22c-.69,5.67.34,10.31,2.4,14.26Z"/>
        <path class="cls-4" d="m933.43,361.63v30.58h-87.44v35.56h80.22v28.34h-80.22v40.54h89.33v30.58h-125.74v-165.6h123.86Z"/>
        <path class="cls-4" d="m1083.74,527.23l-28-112.69h-.52l-27.66,112.69h-36.93l-43.8-165.6h36.42l26.28,112.69h.52l28.69-112.69h34.01l28.34,114.06h.52l27.14-114.06h35.73l-44.49,165.6h-36.25Z"/>
        <path class="cls-4" d="m1260.34,361.63l61.84,165.6h-37.79l-12.54-36.93h-61.84l-13.06,36.93h-36.59l62.53-165.6h37.45Zm2.06,101.52l-20.79-60.81h-.52l-21.64,60.81h42.95Z"/>
      </g>
      <g>
        <g>
          <path class="cls-4" d="m475.2,350.55h-31.1c-2.3-7.3-5.3-14.5-8.9-21.3l22-22c3-3,4.6-6.9,4.6-11.1s-1.6-8.1-4.6-11.1l-31.9-31.9c-3-3-6.9-4.6-11.1-4.6s-8.1,1.6-11.1,4.6l-22,22c-6.8-3.6-14-6.6-21.3-8.9v-31c0-8.7-7-15.7-15.7-15.7h-45.1c-8.7,0-15.7,7-15.7,15.7v31.1c-7.3,2.3-14.5,5.3-21.3,8.9l-22-22c-3-3-6.9-4.6-11.1-4.6s-8.1,1.6-11.1,4.6l-31.9,31.9c-3,3-4.6,6.9-4.6,11.1s1.6,8.1,4.6,11.1l22,22c-3.6,6.8-6.6,14-8.9,21.3h-31.1c-8.7,0-15.7,7-15.7,15.7v45.1c0,8.7,7,15.7,15.7,15.7h31.1c2.3,7.3,5.3,14.5,8.9,21.3l-22,22c-3,3-4.6,6.9-4.6,11.1s1.6,8.1,4.6,11.1l31.9,31.9c3,3,6.9,4.6,11.1,4.6s8.1-1.6,11.1-4.6l22-22c6.8,3.6,14,6.6,21.3,8.9v31.1c0,8.7,7,15.7,15.7,15.7h45.1c8.7,0,15.7-7,15.7-15.7v-31.1c7.3-2.3,14.5-5.3,21.3-8.9l22,22c3,3,6.9,4.6,11.1,4.6s8.1-1.6,11.1-4.6l31.9-31.9c3-3,4.6-6.9,4.6-11.1s-1.6-8.1-4.6-11.1l-22-22c3.6-6.8,6.6-14,8.9-21.3h31.1c8.7,0,15.7-7,15.7-15.7v-45.2c0-8.6-7.1-15.7-15.7-15.7Zm-153.6,124.8c-47.7,0-86.5-38.8-86.5-86.5s38.8-86.5,86.5-86.5,86.5,38.8,86.5,86.5-38.8,86.5-86.5,86.5Z"/>
          <path class="cls-5" d="m344.1,562.25h-45.1c-10.9,0-19.8-8.9-19.8-19.8v-28.1c-5.6-1.9-11.1-4.2-16.4-6.8l-19.9,19.9c-3.7,3.7-8.7,5.8-14,5.8s-10.3-2.1-14-5.8l-31.9-31.9c-3.7-3.7-5.8-8.7-5.8-14s2.1-10.3,5.8-14l19.9-19.9c-2.6-5.3-4.9-10.8-6.8-16.4h-28.1c-10.9,0-19.8-8.9-19.8-19.8v-45.2c0-10.9,8.9-19.8,19.8-19.8h28.1c1.9-5.6,4.2-11.1,6.8-16.4l-19.9-19.9c-3.7-3.7-5.8-8.7-5.8-14s2.1-10.3,5.8-14l31.9-31.9c3.7-3.7,8.7-5.8,14-5.8s10.3,2.1,14,5.8l19.9,19.9c5.3-2.6,10.8-4.9,16.4-6.8v-28.1c0-10.9,8.9-19.8,19.8-19.8h45.1c10.9,0,19.8,8.9,19.8,19.8v28.1c5.6,1.9,11.1,4.2,16.4,6.8l19.9-19.9c3.7-3.7,8.7-5.8,14-5.8s10.3,2.1,14,5.8l31.9,31.9c3.7,3.7,5.8,8.7,5.8,14s-2.1,10.3-5.8,14l-19.9,19.9c2.6,5.3,4.9,10.8,6.8,16.4h28.1c10.9,0,19.8,8.9,19.8,19.8v45.1c0,10.9-8.9,19.8-19.8,19.8h-28c-1.9,5.6-4.2,11.1-6.8,16.4l19.9,19.9c3.7,3.7,5.8,8.7,5.8,14s-2.1,10.3-5.8,14l-31.9,31.9c-3.7,3.7-8.7,5.8-14,5.8s-10.3-2.1-14-5.8l-19.9-19.9c-5.3,2.6-10.8,4.9-16.4,6.8v28.1c-.1,11-9,19.9-19.9,19.9Zm-82.1-63.9c.7,0,1.3.2,1.9.5,6.6,3.5,13.5,6.4,20.6,8.6,1.7.5,2.9,2.1,2.9,3.9v31.1c0,6.4,5.2,11.6,11.6,11.6h45.1c6.4,0,11.6-5.2,11.6-11.6v-31.1c0-1.8,1.2-3.4,2.9-3.9,7.1-2.2,14-5.1,20.6-8.6,1.6-.8,3.6-.5,4.8.7l22,22c2.2,2.2,5.1,3.4,8.2,3.4s6-1.2,8.2-3.4l31.9-31.9c2.2-2.2,3.4-5.1,3.4-8.2s-1.2-6-3.4-8.2l-22-22c-1.3-1.3-1.6-3.2-.7-4.8,3.5-6.6,6.3-13.5,8.6-20.6.5-1.7,2.1-2.9,3.9-2.9h31.1c6.4,0,11.6-5.2,11.6-11.6v-45.1c0-6.4-5.2-11.6-11.6-11.6h-31.1c-1.8,0-3.4-1.2-3.9-2.9-2.2-7.1-5.1-14.1-8.6-20.6-.8-1.6-.5-3.6.7-4.8l22-22c2.2-2.2,3.4-5.1,3.4-8.2s-1.2-6-3.4-8.2l-31.9-31.9c-2.2-2.2-5.1-3.4-8.2-3.4s-6,1.2-8.2,3.4l-22,22c-1.3,1.3-3.2,1.6-4.8.7-6.6-3.5-13.5-6.4-20.6-8.6-1.7-.5-2.9-2.1-2.9-3.9v-31c0-6.4-5.2-11.6-11.6-11.6h-45.1c-6.4,0-11.6,5.2-11.6,11.6v31.1c0,1.8-1.2,3.4-2.9,3.9-7.1,2.2-14.1,5.1-20.6,8.6-1.6.8-3.6.5-4.8-.7l-22-22c-2.2-2.2-5.1-3.4-8.2-3.4s-6,1.2-8.2,3.4l-31.9,31.9c-2.2,2.2-3.4,5.1-3.4,8.2s1.2,6,3.4,8.2l22,22c1.3,1.3,1.6,3.2.7,4.8-3.5,6.6-6.4,13.5-8.6,20.6-.5,1.7-2.1,2.9-3.9,2.9h-31.1c-6.4,0-11.6,5.2-11.6,11.6v45.1c0,6.4,5.2,11.6,11.6,11.6h31.1c1.8,0,3.4,1.2,3.9,2.9,2.2,7.1,5.1,14.1,8.6,20.6.8,1.6.5,3.6-.7,4.8l-22,22c-2.2,2.2-3.4,5.1-3.4,8.2s1.2,6,3.4,8.2l31.9,31.9c2.2,2.2,5.1,3.4,8.2,3.4s6-1.2,8.2-3.4l22-22c.8-.9,1.8-1.3,2.9-1.3Z"/>
          <path class="cls-2" d="m344.1,562.25h-45.1c-10.9,0-19.8-8.9-19.8-19.8v-28.1c-5.6-1.9-11.1-4.2-16.4-6.8l-19.9,19.9c-3.7,3.7-8.7,5.8-14,5.8s-10.3-2.1-14-5.8l-31.9-31.9c-3.7-3.7-5.8-8.7-5.8-14s2.1-10.3,5.8-14l19.9-19.9c-2.6-5.3-4.9-10.8-6.8-16.4h-28.1c-10.9,0-19.8-8.9-19.8-19.8v-45.2c0-10.9,8.9-19.8,19.8-19.8h28.1c1.9-5.6,4.2-11.1,6.8-16.4l-19.9-19.9c-3.7-3.7-5.8-8.7-5.8-14s2.1-10.3,5.8-14l31.9-31.9c3.7-3.7,8.7-5.8,14-5.8s10.3,2.1,14,5.8l19.9,19.9c5.3-2.6,10.8-4.9,16.4-6.8v-28.1c0-10.9,8.9-19.8,19.8-19.8h45.1c10.9,0,19.8,8.9,19.8,19.8v28.1c5.6,1.9,11.1,4.2,16.4,6.8l19.9-19.9c3.7-3.7,8.7-5.8,14-5.8s10.3,2.1,14,5.8l31.9,31.9c3.7,3.7,5.8,8.7,5.8,14s-2.1,10.3-5.8,14l-19.9,19.9c2.6,5.3,4.9,10.8,6.8,16.4h28.1c10.9,0,19.8,8.9,19.8,19.8v45.1c0,10.9-8.9,19.8-19.8,19.8h-28c-1.9,5.6-4.2,11.1-6.8,16.4l19.9,19.9c3.7,3.7,5.8,8.7,5.8,14s-2.1,10.3-5.8,14l-31.9,31.9c-3.7,3.7-8.7,5.8-14,5.8s-10.3-2.1-14-5.8l-19.9-19.9c-5.3,2.6-10.8,4.9-16.4,6.8v28.1c-.1,11-9,19.9-19.9,19.9Zm-82.1-63.9c.7,0,1.3.2,1.9.5,6.6,3.5,13.5,6.4,20.6,8.6,1.7.5,2.9,2.1,2.9,3.9v31.1c0,6.4,5.2,11.6,11.6,11.6h45.1c6.4,0,11.6-5.2,11.6-11.6v-31.1c0-1.8,1.2-3.4,2.9-3.9,7.1-2.2,14-5.1,20.6-8.6,1.6-.8,3.6-.5,4.8.7l22,22c2.2,2.2,5.1,3.4,8.2,3.4s6-1.2,8.2-3.4l31.9-31.9c2.2-2.2,3.4-5.1,3.4-8.2s-1.2-6-3.4-8.2l-22-22c-1.3-1.3-1.6-3.2-.7-4.8,3.5-6.6,6.3-13.5,8.6-20.6.5-1.7,2.1-2.9,3.9-2.9h31.1c6.4,0,11.6-5.2,11.6-11.6v-45.1c0-6.4-5.2-11.6-11.6-11.6h-31.1c-1.8,0-3.4-1.2-3.9-2.9-2.2-7.1-5.1-14.1-8.6-20.6-.8-1.6-.5-3.6.7-4.8l22-22c2.2-2.2,3.4-5.1,3.4-8.2s-1.2-6-3.4-8.2l-31.9-31.9c-2.2-2.2-5.1-3.4-8.2-3.4s-6,1.2-8.2,3.4l-22,22c-1.3,1.3-3.2,1.6-4.8.7-6.6-3.5-13.5-6.4-20.6-8.6-1.7-.5-2.9-2.1-2.9-3.9v-31c0-6.4-5.2-11.6-11.6-11.6h-45.1c-6.4,0-11.6,5.2-11.6,11.6v31.1c0,1.8-1.2,3.4-2.9,3.9-7.1,2.2-14.1,5.1-20.6,8.6-1.6.8-3.6.5-4.8-.7l-22-22c-2.2-2.2-5.1-3.4-8.2-3.4s-6,1.2-8.2,3.4l-31.9,31.9c-2.2,2.2-3.4,5.1-3.4,8.2s1.2,6,3.4,8.2l22,22c1.3,1.3,1.6,3.2.7,4.8-3.5,6.6-6.4,13.5-8.6,20.6-.5,1.7-2.1,2.9-3.9,2.9h-31.1c-6.4,0-11.6,5.2-11.6,11.6v45.1c0,6.4,5.2,11.6,11.6,11.6h31.1c1.8,0,3.4,1.2,3.9,2.9,2.2,7.1,5.1,14.1,8.6,20.6.8,1.6.5,3.6-.7,4.8l-22,22c-2.2,2.2-3.4,5.1-3.4,8.2s1.2,6,3.4,8.2l31.9,31.9c2.2,2.2,5.1,3.4,8.2,3.4s6-1.2,8.2-3.4l22-22c.8-.9,1.8-1.3,2.9-1.3Z"/>
          <path class="cls-4" d="m321.6,479.85c-50.2,0-91-40.8-91-91s40.8-91,91-91,91,40.8,91,91-40.8,91-91,91Zm0-174.5c-46,0-83.4,37.4-83.4,83.4s37.4,83.4,83.4,83.4,83.4-37.4,83.4-83.4-37.4-83.4-83.4-83.4Zm0,144.5c-33.6,0-61-27.4-61-61s27.4-61,61-61,61,27.4,61,61-27.4,61-61,61Zm0-114.5c-29.5,0-53.4,24-53.4,53.4s24,53.4,53.4,53.4,53.4-24,53.4-53.4-24-53.4-53.4-53.4Z"/>
        </g>
        <path class="cls-4" d="m461.7,443.25c-17-15.3-40.9-19.2-61.4-11.7l-121.4-121.4c7.9-21.5,3.2-46.6-14.1-63.9-18.7-18.7-46.5-22.6-69.1-11.9-1.7.8-2.1,3-.7,4.4l34.7,34.7c4.3,4.3,4.3,11.2,0,15.4l-8.2,8.2c-4.3,4.3-11.2,4.3-15.4,0l-34.7-34.7c-1.3-1.3-3.6-1-4.4.7-11.2,23.5-6.5,52.8,14.3,71.4,17,15.3,40.9,19.2,61.4,11.7l121.4,121.4c-7.9,21.5-3.2,46.6,14.1,63.9,18.7,18.7,46.5,22.6,69.1,11.9,1.7-.8,2.1-3,.7-4.4l-34.7-34.7c-4.3-4.3-4.3-11.2,0-15.4l8.2-8.2c4.3-4.3,11.2-4.3,15.4,0l34.7,34.7c1.3,1.3,3.6,1,4.4-.7,11.3-23.5,6.5-52.8-14.3-71.4Z"/>
        <path class="cls-2" d="m421.3,553.35c-16.9,0-33.5-6.6-45.9-19-17.2-17.2-23.3-42.7-15.9-65.7l-117.7-117.7c-22,7-45.9,2-63.1-13.4-21.7-19.4-27.8-50.1-15.3-76.3.9-2,2.8-3.4,5-3.8s4.4.3,6,1.9l34.7,34.7c2.6,2.6,6.9,2.6,9.6,0l8.2-8.2c2.6-2.6,2.6-6.9,0-9.6l-34.7-34.7c-1.6-1.6-2.3-3.8-1.9-6s1.8-4.1,3.8-5c24.8-11.8,54.4-6.7,73.8,12.7,17.2,17.2,23.3,42.7,15.9,65.7l117.7,117.7c22-7,45.9-2,63.1,13.4h0c21.6,19.4,27.8,50.1,15.3,76.3-.9,2-2.8,3.4-5,3.8-2.2.4-4.4-.3-6-1.9l-34.7-34.7c-2.6-2.6-6.9-2.6-9.6,0l-8.2,8.2c-1.3,1.3-2,3-2,4.8s.7,3.5,2,4.8l34.7,34.7c1.6,1.6,2.3,3.8,1.9,6s-1.8,4.1-3.8,5c-8.9,4.2-18.5,6.3-27.9,6.3Zm-178.5-211.3c1.1,0,2.1.4,2.9,1.2l121.4,121.4c1.1,1.1,1.5,2.8,1,4.3-7.6,20.6-2.4,44,13.1,59.6,16.4,16.4,41.4,21.1,62.6,11.9l-33.3-33.3c-2.8-2.8-4.4-6.6-4.4-10.6s1.6-7.8,4.4-10.6l8.2-8.2c5.9-5.9,15.4-5.9,21.2,0l33.3,33.3c9.8-22.4,4.2-48.2-14.2-64.7h0c-15.5-13.9-37.5-18.1-57.3-10.9-1.5.5-3.2.2-4.3-1l-121.4-121.4c-1.1-1.1-1.5-2.8-1-4.3,7.6-20.6,2.4-44-13.1-59.6-16.4-16.4-41.4-21.1-62.6-11.9l33.3,33.3c5.9,5.9,5.9,15.4,0,21.2l-8.2,8.2c-5.9,5.9-15.4,5.9-21.2,0l-33.3-33.3c-9.8,22.4-4.2,48.2,14.2,64.7,15.5,13.9,37.5,18.1,57.3,10.9.5-.1,1-.2,1.4-.2Z"/>
        <path class="cls-2" d="m609.8,300.85c1.7,1.3,3.8,2,6,2,1.6,0,3.1-.4,4.6-1.1,3.4-1.7,5.5-5.2,5.5-9v-60.6c0-3.2-1.5-6.2-4.1-8.1L319,1.95c-3.6-2.6-8.4-2.6-11.9,0L4.1,223.95c-2.6,1.9-4.1,4.9-4.1,8.1v60.6c0,5.6,4.5,10.1,10.1,10.1,2.2,0,4.3-.7,6-2l44.5-32.6v317.2H10.1c-5.6,0-10.1,4.5-10.1,10.1s4.5,10.1,10.1,10.1h605.7c5.6,0,10.1-4.5,10.1-10.1s-4.5-10.1-10.1-10.1h-50.5v-317.1l44.5,32.6Zm-64.7,284.6h-272.6l-1-.1c-6.6,0-11.6.1-18.2.1h-123c-8.1.2-12.3-.3-19.3,0h-30.3V253.45l232.2-170.3,232.2,170.2v332.1ZM318.9,62.45c-3.6-2.6-8.4-2.6-11.9,0L20.2,272.75v-35.5L312.9,22.55l292.7,214.7v35.5L318.9,62.45Z"/>
      </g>
      <text class="cls-1" transform="translate(647.06 576.63)"><tspan class="cls-9" x="0" y="0">SE</tspan><tspan class="cls-7" x="55.35" y="0">R</tspan><tspan class="cls-9" x="83.71" y="0">VICES</tspan><tspan class="cls-12" x="213.65" y="0"> </tspan><tspan class="cls-10" x="227.9" y="0">A</tspan><tspan class="cls-11" x="254.96" y="0">T</tspan><tspan class="cls-3" x="280.6" y="0"> </tspan><tspan class="cls-6" x="294.75" y="0">Y</tspan><tspan class="cls-8" x="322.52" y="0">OUR FINGE</tspan><tspan class="cls-13" x="557.7" y="0">R</tspan><tspan class="cls-8" x="586.5" y="0">TIPS</tspan></text>
    </g>
  </g>
</svg>