<svg xmlns="http://www.w3.org/2000/svg" xmlns:xlink="http://www.w3.org/1999/xlink" viewBox="0,0,256,256" width="512px" height="512px" fill-rule="nonzero"><defs><linearGradient x1="24" y1="11.12" x2="24" y2="45.203" gradientUnits="userSpaceOnUse" id="color-1"><stop offset="0" stop-color="#3ccbf4"></stop><stop offset="1" stop-color="#1fa0e5"></stop></linearGradient><linearGradient x1="24.016" y1="22.883" x2="24.016" y2="31.729" gradientUnits="userSpaceOnUse" id="color-2"><stop offset="0" stop-color="#f44f5a"></stop><stop offset="0.443" stop-color="#ee3d4a"></stop><stop offset="1" stop-color="#fcc419"></stop></linearGradient></defs><g fill="none" fill-rule="nonzero" stroke="none" stroke-width="1" stroke-linecap="butt" stroke-linejoin="miter" stroke-miterlimit="10" stroke-dasharray="" stroke-dashoffset="0" font-family="none" font-weight="none" font-size="none" text-anchor="none" style="mix-blend-mode: normal"><g transform="scale(5.33333,5.33333)"><path d="M35.133,46h-22.266c-1.051,0 -1.923,-0.814 -1.995,-1.862l-1.798,-25.069c-0.04,-0.578 0.418,-1.069 0.997,-1.069h27.857c0.579,0 1.037,0.491 0.998,1.069l-1.798,25.069c-0.072,1.048 -0.944,1.862 -1.995,1.862z" fill="url(#color-1)"></path><path d="M40.5,23c-0.829,0 -1.5,-0.672 -1.5,-1.5v-1.761c0,-8.127 -6.612,-14.739 -14.739,-14.739h-0.522c-8.127,0 -14.739,6.612 -14.739,14.739v1.761c0,0.828 -0.671,1.5 -1.5,1.5c-0.829,0 -1.5,-0.672 -1.5,-1.5v-1.761c0,-9.781 7.958,-17.739 17.739,-17.739h0.522c9.781,0 17.739,7.958 17.739,17.739v1.761c0,0.828 -0.671,1.5 -1.5,1.5z" fill="#199be2"></path><path d="M38,24h-28c-0.552,0 -1,-0.448 -1,-1v-4c0,-0.552 0.448,-1 1,-1h28c0.552,0 1,0.448 1,1v4c0,0.552 -0.448,1 -1,1z" fill="#5fe1ff"></path><path d="M35.032,18.085c-5.032,2.915 -3.032,16.915 -7.032,16.915c-4,0 -2,-11 -5,-11c-3,0 -2,4 -5,4c-3,0 -2,-8 -5,-10z" fill="url(#color-2)"></path></g></g></svg>