<?xml version="1.0" encoding="utf-8"?>
<!-- Generator: Adobe Illustrator 27.4.0, SVG Export Plug-In . SVG Version: 6.00 Build 0)  -->
<svg version="1.1" id="Layer_1" xmlns="http://www.w3.org/2000/svg" xmlns:xlink="http://www.w3.org/1999/xlink" x="0px" y="0px"
	 viewBox="0 0 512 512" style="enable-background:new 0 0 512 512;" xml:space="preserve">
<style type="text/css">
	.st0{fill:url(#SVGID_1_);}
	.st1{fill:url(#SVGID_00000181792242387100193060000014561909823629181359_);}
	.st2{fill:url(#SVGID_00000063617394483812124160000015703651146194399126_);}
	.st3{fill:url(#SVGID_00000057121903977205718720000003279104140275748755_);}
	.st4{fill:#87909A;}
	.st5{fill:#7A828C;}
	.st6{fill:url(#SVGID_00000171677646542485383550000015124558799577002426_);}
</style>
<g>
	<g transform="scale(5.33333,5.33333)">
		
			<linearGradient id="SVGID_1_" gradientUnits="userSpaceOnUse" x1="-80.2541" y1="176.3254" x2="-104.1441" y2="188.1745" gradientTransform="matrix(-10.6667 0 0 -10.6667 -799.1918 1921.5625)">
			<stop  offset="0" style="stop-color:#87909B"/>
			<stop  offset="0.509" style="stop-color:#A7ADB7"/>
			<stop  offset="1" style="stop-color:#E8EAEE"/>
		</linearGradient>
		<path class="st0" d="M19.5,53.4L41.1,75l4.6,0.2l-3-3l4.9,0.2l-3-3l4.9,0.2l-3-3l4.9,0.2l-3-3l4.9,0.2l-3-3l4.9,0.2l-3-3l4.9,0.2
			l-3-3l4.9,0.2l-3-3l4.9,0.2l-3-3l4.9,0.2l-3-3l4.9,0.2l-3-3l4.9,0.2l-3-3l4.9,0.2l-3-3l4.9,0.2l-3-3l4.9,0.2l-3-3l4.9,0.2l-3-3
			l4.9,0.2l-3-3l4.9,0.2l-3-3l4.9,0.2l-3-3l4.9,0.2l0,0l-3-3l4.9,0.2l0,0l-3-3l4.9,0.2l0,0l-3-3l4.9,0.2l0,0l-3-3l4.7,0.2L80,2
			c-0.8-0.8-2.2-0.9-3.1-0.1L19.5,53.4z M78.4,10c0-1.1,0.9-2,2-2c1.1,0,2,0.9,2,2s-0.9,2-2,2C79.3,12,78.4,11.1,78.4,10z"/>
		
			<linearGradient id="SVGID_00000169521561553274920290000014224867237576103337_" gradientUnits="userSpaceOnUse" x1="-77.8625" y1="173.9654" x2="-84.3715" y2="183.1084" gradientTransform="matrix(-10.6667 0 0 -10.6667 -799.1918 1921.5625)">
			<stop  offset="0" style="stop-color:#171714;stop-opacity:0.502"/>
			<stop  offset="1" style="stop-color:#171714;stop-opacity:0"/>
		</linearGradient>
		<path style="fill:url(#SVGID_00000169521561553274920290000014224867237576103337_);" d="M40.3,56.7c-0.8-0.5-1.3-2,0.6-4
			c3.4-3.6,2.6-9.3-0.6-13.1L38,37c-0.1-0.1-1.8,1.7-1.8,1.7L20.2,52.5c-0.8,0.7-0.9,1.8-0.4,2.7l13.4-11.5l1,1.2
			c0.5,0.6,0.5,1.4-0.1,1.9c0,0,0,0,0,0l-0.9,0.9c-1.8,1.7-2.8,4.1-2.8,6.7c0,2.5,1,4.9,2.8,6.7l0.3,0.3l7,5.7
			c0.4,0.5,0.4,1.1,0.1,1.7l-2.2,3.5l2.8,2.8l0.6,0l-0.2-0.2l3.9,0.2l-2.8-2.8l1,0.1l-0.2-0.2l3.9,0.2l-2.8-2.8l1,0.1l-0.2-0.2
			l3,0.2c0-0.3,0-0.5,0.1-0.8l-2-2l1,0.1l-0.2-0.2l1.2,0.1c-0.2-2-1.2-4-2.7-5.5L45.7,61L40.3,56.7L40.3,56.7z"/>
		
			<linearGradient id="SVGID_00000029733244682870441260000009421681910629374099_" gradientUnits="userSpaceOnUse" x1="-77.2721" y1="175.7495" x2="-76.5409" y2="159.7464" gradientTransform="matrix(-10.6667 0 0 -10.6667 -799.1918 1921.5625)">
			<stop  offset="0" style="stop-color:#DDB186"/>
			<stop  offset="1" style="stop-color:#E8C90C"/>
		</linearGradient>
		<path style="fill:url(#SVGID_00000029733244682870441260000009421681910629374099_);" d="M23.7,94.8l7.2-5.7
			c2.9-2.3,5.5-5.2,7.5-8.5l5.5-9.1c1.3-2.1,1-4.8-0.6-6.6l-6.5-5.8c-1.9-2.1-1.9-5.5,0.1-7.5l0.9-0.9c1.9-1.9,2.1-5.1,0.4-7.3
			L36,40.9c-0.7-0.8-1.8-0.9-2.6-0.2L3.9,67.1c-0.9,0.8-0.4,2.3,0.7,2.4c1.8,0.2,3.4,1.4,4.1,3.2c2.3,5.8,7.6,11.7,11.5,15.3
			c1.2,1.2,1.9,2.9,1.7,4.6l-0.1,1C21.7,94.8,22.9,95.5,23.7,94.8z M25,82.2L14.3,68.7c-1.1-1.7-0.9-3.9,0.6-5.3l0,0
			c1.6-1.5,4.2-1.2,5.4,0.7L31,77.6c1.1,1.7,0.8,4-0.6,5.3C28.7,84.4,26.2,84.1,25,82.2z"/>
		
			<linearGradient id="SVGID_00000157273962293515154860000005535480234639561137_" gradientUnits="userSpaceOnUse" x1="-77.057" y1="172.4668" x2="-76.7796" y2="191.3927" gradientTransform="matrix(-10.6667 0 0 -10.6667 -799.1918 1921.5625)">
			<stop  offset="0" style="stop-color:#EA9854"/>
			<stop  offset="0.427" style="stop-color:#695B50"/>
			<stop  offset="1" style="stop-color:#C5651B"/>
		</linearGradient>
		<path style="fill:url(#SVGID_00000157273962293515154860000005535480234639561137_);" d="M23.5,83.3c0.9,1.3,2.3,2.2,3.8,2.4
			c1.5,0.2,3.1-0.3,4.2-1.4c0.1-0.1,0.2-0.2,0.3-0.3c1.9-2,2.2-5.3,0.6-7.7L21.8,62.9c-0.9-1.3-2.3-2.2-3.8-2.4
			c-1.5-0.2-3.1,0.3-4.3,1.4c-2.2,2-2.6,5.4-0.9,7.9L23.5,83.3L23.5,83.3z M25,82.2L14.3,68.7c-1.1-1.7-0.9-3.9,0.6-5.3l0,0
			c1.6-1.5,4.2-1.2,5.4,0.7L31,77.6c1.1,1.7,0.8,4-0.6,5.3C28.7,84.4,26.2,84.1,25,82.2z"/>
		<circle class="st4" cx="34.4" cy="46" r="2"/>
		<circle class="st5" cx="40.4" cy="68" r="2"/>
		
			<linearGradient id="SVGID_00000143611884544775508550000016767993787946682038_" gradientUnits="userSpaceOnUse" x1="-75.4461" y1="171.8887" x2="-81.4515" y2="177.0312" gradientTransform="matrix(-10.6667 0 0 -10.6667 -799.1918 1921.5625)">
			<stop  offset="0" style="stop-color:#754C24"/>
			<stop  offset="1" style="stop-color:#754C24;stop-opacity:0"/>
		</linearGradient>
		<path style="fill:url(#SVGID_00000143611884544775508550000016767993787946682038_);" d="M3.9,67.1c-0.9,0.8-0.4,2.3,0.7,2.4
			c1.8,0.2,3.4,1.4,4.1,3.2c2.3,5.8,7.6,11.7,11.5,15.3c1.2,1.2,1.9,2.9,1.7,4.6l-0.1,1c-0.1,1.1,1.1,1.9,1.9,1.2l4-3.2L7.2,64.2
			L3.9,67.1L3.9,67.1z"/>
	</g>
</g>
</svg>
